<?xml version="1.0" standalone="no"?>
<!DOCTYPE svg PUBLIC "-//W3C//DTD SVG 20010904//EN"
 "http://www.w3.org/TR/2001/REC-SVG-20010904/DTD/svg10.dtd">
<svg version="1.0" xmlns="http://www.w3.org/2000/svg"
 width="1080.000000pt" height="1080.000000pt" viewBox="0 0 1080.000000 1080.000000"
 preserveAspectRatio="xMidYMid meet">
<metadata>
Created by potrace 1.14, written by Peter Selinger 2001-2017
</metadata>
<g transform="translate(0.000000,1080.000000) scale(0.100000,-0.100000)"
fill="#000000" stroke="none">
<path d="M5289 9996 c-2 -2 -20 -6 -39 -9 -42 -7 -60 -12 -82 -21 -9 -4 -22
-9 -30 -10 -20 -3 -95 -44 -157 -85 -68 -44 -170 -147 -184 -186 -4 -8 -11
-15 -16 -15 -5 0 -12 -13 -16 -30 -4 -16 -10 -30 -15 -30 -5 0 -16 -24 -26
-52 -9 -29 -21 -59 -27 -65 -5 -7 -7 -13 -3 -13 3 0 2 -10 -3 -23 -35 -92 -28
-298 13 -412 22 -59 54 -125 81 -164 16 -23 35 -50 40 -59 26 -41 177 -172
199 -172 3 0 27 -13 53 -28 26 -16 50 -29 53 -30 3 0 12 -3 20 -5 134 -43 300
-52 415 -23 44 11 102 29 110 34 6 4 12 7 16 7 3 0 41 21 85 46 108 64 189
144 251 249 18 30 38 62 45 70 7 8 11 15 9 15 -3 0 2 23 11 50 16 48 24 80 34
135 5 25 5 165 1 210 -2 14 -6 31 -10 38 -5 6 -6 12 -3 12 2 0 0 15 -5 33 -6
17 -12 40 -14 51 -2 10 -9 24 -15 30 -5 7 -7 16 -3 19 3 4 0 7 -7 7 -7 0 -11
3 -7 6 14 14 -87 159 -162 231 -45 43 -167 123 -189 123 -7 0 -12 4 -12 8 0 7
-70 32 -140 50 -22 6 -266 13 -271 8z m177 -231 c34 -3 56 -7 99 -19 28 -7 95
-42 95 -48 0 -5 6 -8 13 -8 16 0 103 -81 138 -130 30 -41 62 -100 54 -100 -3
0 1 -13 9 -28 8 -15 17 -44 19 -62 3 -19 6 -35 7 -35 7 0 3 -82 -5 -88 -7 -6
-6 -10 3 -14 6 -2 10 -9 6 -14 -3 -5 -7 -18 -10 -29 -2 -11 -7 -30 -10 -42 -3
-13 -6 -28 -7 -33 -2 -6 -15 -35 -29 -65 -40 -81 -181 -223 -202 -203 -3 3 -6
2 -6 -3 0 -10 -74 -41 -76 -33 0 2 -7 -1 -15 -8 -26 -21 -150 -32 -230 -20
-45 7 -119 31 -119 39 0 4 -7 5 -15 2 -8 -4 -15 -2 -15 4 0 5 -14 15 -31 23
-41 16 -138 114 -172 171 -99 169 -90 385 22 538 30 40 107 120 117 120 3 0
19 9 35 21 16 11 35 22 42 23 7 1 21 7 33 14 26 14 65 23 129 29 27 2 51 6 53
8 2 2 9 1 16 -1 7 -3 30 -7 52 -9z"/>
<path d="M6396 9230 c-27 -18 -57 -47 -56 -55 0 -3 0 -8 -1 -12 -7 -46 6 -86
36 -116 14 -14 115 -52 163 -62 11 -2 31 -9 44 -16 13 -7 24 -12 25 -11 4 2
37 -9 56 -19 11 -6 21 -8 24 -5 3 2 20 -4 39 -15 19 -10 43 -19 54 -19 11 0
20 -4 20 -10 0 -5 3 -9 8 -8 4 1 18 -4 32 -12 14 -7 25 -12 25 -11 0 4 46 -15
128 -53 42 -20 82 -36 87 -36 6 0 10 -3 10 -8 0 -11 118 -64 129 -58 5 4 12 2
16 -4 4 -6 18 -4 38 7 18 9 35 16 40 15 4 -1 7 4 7 12 0 7 6 19 14 25 31 26 4
134 -36 147 -10 3 -18 10 -18 16 0 6 -3 8 -6 5 -4 -4 -19 2 -33 11 -28 20 -92
51 -206 101 -38 17 -78 36 -87 41 -10 6 -25 10 -33 10 -8 0 -15 5 -15 10 0 6
-3 9 -7 9 -5 -1 -11 0 -15 1 -5 1 -11 3 -15 5 -11 2 -44 15 -68 25 -62 26
-134 48 -139 43 -3 -4 -6 -1 -6 6 0 6 -6 11 -12 10 -7 -1 -20 0 -28 4 -43 16
-96 31 -107 29 -7 -2 -13 1 -13 6 0 14 -70 8 -94 -8z"/>
<path d="M4239 9219 c-7 -4 -17 -5 -21 -3 -4 3 -8 0 -8 -6 0 -6 -6 -10 -12 -9
-7 1 -20 0 -28 -3 -8 -3 -37 -13 -65 -23 -27 -9 -57 -19 -65 -22 -8 -3 -19 -7
-25 -9 -15 -3 -180 -71 -230 -94 -24 -11 -49 -20 -54 -20 -6 0 -11 -5 -11 -11
0 -5 -4 -7 -10 -4 -5 3 -10 1 -10 -4 0 -6 -3 -10 -7 -9 -5 1 -18 -3 -29 -10
-12 -6 -24 -8 -28 -5 -3 3 -6 2 -6 -4 0 -5 -20 -18 -45 -29 -25 -10 -45 -22
-45 -28 0 -5 -3 -6 -6 -3 -4 4 -20 -3 -35 -14 -16 -11 -29 -17 -29 -14 0 4
-15 -8 -32 -26 -18 -18 -32 -37 -30 -41 1 -5 -2 -17 -7 -27 -7 -12 -6 -22 1
-29 7 -7 9 -12 4 -12 -4 0 0 -13 10 -29 22 -37 67 -63 103 -59 30 4 241 106
253 123 4 6 8 7 8 3 0 -4 42 13 94 37 51 24 105 47 120 51 14 3 26 10 26 16 0
5 4 7 10 3 5 -3 17 -1 27 5 18 10 76 32 81 31 1 -1 15 5 30 12 15 8 35 13 45
12 9 -2 17 0 17 5 0 6 44 21 75 24 6 1 25 10 42 21 42 25 67 76 58 121 -6 34
-45 83 -68 85 -53 6 -87 5 -98 -2z"/>
<path d="M8094 8871 c-3 -3 -22 -6 -42 -7 -20 0 -49 -4 -63 -8 -14 -4 -32 -8
-40 -10 -39 -8 -77 -21 -106 -37 -17 -10 -34 -15 -37 -12 -3 4 -6 2 -6 -4 0
-6 -8 -13 -17 -17 -33 -11 -82 -43 -76 -50 3 -3 1 -6 -5 -6 -31 0 -174 -157
-202 -222 -5 -13 -14 -30 -19 -38 -12 -20 -28 -59 -37 -90 -20 -64 -25 -93
-30 -165 -3 -38 -7 -78 -9 -87 -2 -10 0 -18 3 -18 4 0 7 -15 6 -32 -1 -18 3
-48 8 -67 5 -18 12 -43 14 -55 3 -11 6 -25 8 -31 1 -5 8 -20 14 -32 7 -13 10
-23 7 -23 -7 0 38 -82 78 -139 47 -69 147 -161 223 -207 73 -43 182 -87 196
-78 4 3 8 1 8 -5 0 -5 8 -10 18 -11 162 -7 245 -7 282 1 25 5 54 11 65 13 122
23 327 162 381 258 5 10 13 15 17 12 4 -4 7 -2 7 4 0 6 14 33 30 59 28 43 67
136 75 174 2 9 8 32 13 51 5 19 9 85 10 147 0 98 -4 132 -25 201 -2 8 -4 17
-5 20 0 3 -4 13 -10 23 -5 10 -11 26 -13 36 -2 9 -12 32 -24 51 -12 19 -27 47
-34 63 -7 15 -16 24 -20 20 -4 -3 -7 1 -7 10 0 9 -8 21 -17 26 -10 6 -15 11
-11 11 7 0 -86 95 -118 120 -85 66 -229 130 -301 133 -7 0 -13 3 -13 7 0 3
-15 6 -32 6 -18 -1 -57 1 -86 5 -29 3 -55 3 -58 0z m175 -247 c3 -5 17 -11 30
-12 13 -2 42 -15 65 -28 22 -14 49 -27 59 -31 9 -3 17 -9 17 -14 0 -5 8 -9 17
-9 9 0 14 -2 11 -5 -3 -3 11 -23 31 -43 41 -42 79 -94 83 -114 2 -7 6 -16 11
-19 4 -3 9 -15 12 -27 2 -11 9 -30 15 -41 6 -12 12 -48 13 -81 1 -33 6 -60 10
-60 5 0 5 -5 2 -10 -4 -6 -8 -33 -10 -61 -2 -28 -9 -57 -16 -65 -6 -8 -9 -14
-6 -14 9 0 -14 -63 -29 -80 -7 -8 -12 -19 -12 -23 0 -5 -9 -20 -21 -33 -11
-13 -19 -24 -16 -24 2 0 -15 -20 -39 -45 -25 -25 -49 -45 -55 -45 -6 0 -11 -4
-11 -10 0 -5 -6 -10 -14 -10 -7 0 -19 -7 -26 -15 -6 -8 -15 -14 -18 -13 -4 1
-18 -3 -32 -9 -63 -28 -82 -33 -150 -39 -72 -6 -68 -6 -119 1 -57 8 -145 41
-203 77 -50 31 -148 133 -148 155 0 7 -4 13 -9 13 -9 0 -35 58 -32 73 0 4 -4
7 -10 7 -6 0 -9 6 -6 14 3 7 2 17 -3 22 -5 5 -11 32 -14 59 -3 28 -8 62 -10
78 -2 15 0 27 4 27 4 0 6 10 5 23 -1 19 2 38 20 107 2 8 4 15 5 15 1 0 3 8 5
18 2 10 11 27 19 36 9 10 13 21 9 24 -3 4 -1 7 6 7 7 0 10 4 6 9 -3 6 4 15 16
21 11 7 19 14 16 16 -9 9 88 99 129 119 21 11 42 25 46 30 5 6 8 6 8 1 0 -6 5
-5 12 2 7 7 20 12 30 12 10 0 18 5 18 11 0 6 8 8 19 4 11 -3 22 -2 25 3 7 12
226 8 235 -4z"/>
<path d="M2547 8864 c-2 -2 -17 -5 -33 -7 -17 -2 -35 -7 -42 -11 -7 -4 -23 -9
-36 -12 -35 -6 -112 -44 -180 -88 -55 -35 -186 -160 -186 -177 0 -4 -6 -14
-14 -21 -18 -19 -79 -137 -79 -154 0 -8 -3 -14 -7 -14 -4 0 -7 -6 -7 -12 -1
-7 -8 -44 -17 -83 -16 -72 -22 -200 -12 -245 4 -14 8 -38 10 -55 7 -54 82
-235 98 -235 4 0 8 -5 8 -11 0 -21 95 -126 158 -174 67 -51 172 -111 172 -98
0 4 4 2 8 -4 4 -7 17 -14 27 -16 11 -2 28 -7 37 -11 9 -4 22 -5 28 -1 5 3 10
2 10 -2 0 -13 32 -16 170 -17 91 0 141 5 185 17 33 10 66 19 73 21 7 1 18 8
24 14 7 7 20 12 29 12 9 0 22 7 29 15 7 8 16 13 20 10 4 -2 16 5 28 15 12 11
26 20 32 20 5 0 10 5 10 10 0 6 7 10 16 10 8 0 12 5 9 10 -3 6 -1 10 5 10 19
0 110 100 155 170 42 65 83 154 91 194 2 11 6 32 9 46 3 14 8 36 10 50 7 33 6
154 -1 205 -8 56 -12 80 -14 83 -2 1 -4 7 -5 12 -1 6 -4 12 -5 15 -1 3 -3 8
-4 13 -4 23 -52 132 -58 132 -5 0 -8 7 -8 15 0 8 -5 15 -12 15 -6 0 -9 3 -5 6
3 3 -4 17 -16 32 -60 71 -93 108 -104 115 -7 4 -27 21 -45 37 -18 17 -38 30
-45 30 -7 0 -13 4 -13 8 0 5 -24 19 -52 33 -29 13 -55 27 -56 32 -2 4 -8 5
-12 2 -5 -3 -17 -1 -27 5 -37 21 -145 37 -247 37 -58 0 -107 -1 -109 -3z m182
-230 c20 -1 38 -3 41 -5 3 -1 10 -3 15 -4 40 -8 145 -57 145 -68 0 -6 3 -8 6
-4 23 23 185 -178 198 -246 2 -12 8 -33 13 -47 5 -14 9 -36 8 -50 -1 -14 2
-29 5 -35 6 -9 6 -28 0 -40 -1 -3 -4 -22 -5 -42 -4 -41 -11 -88 -14 -88 -2 0
-4 -10 -7 -22 -3 -20 -14 -42 -56 -114 -29 -50 -105 -129 -125 -129 -7 0 -13
-4 -13 -9 0 -5 -13 -14 -30 -21 -16 -7 -30 -17 -30 -23 0 -6 -3 -8 -6 -5 -3 4
-22 -1 -42 -9 -44 -18 -77 -26 -114 -27 -16 -1 -28 -5 -28 -9 0 -5 -4 -5 -10
-2 -5 3 -39 8 -75 10 -37 2 -72 8 -79 14 -7 6 -16 8 -19 5 -4 -4 -18 1 -31 10
-14 9 -32 16 -41 16 -8 0 -15 5 -15 10 0 6 -6 10 -13 10 -27 0 -121 88 -166
155 -24 35 -53 95 -57 118 -1 4 -2 8 -4 10 -5 6 -22 114 -21 142 0 18 9 110
12 115 1 3 3 10 4 15 1 6 8 26 16 45 7 19 12 38 11 43 -1 4 3 7 10 7 6 0 9 3
5 6 -9 10 77 118 126 158 44 36 155 93 198 101 13 3 46 7 73 10 28 3 52 8 54
10 3 2 9 2 15 -2 6 -3 26 -7 46 -9z"/>
<path d="M5270 7882 c0 -5 -17 -8 -37 -7 -21 0 -42 -1 -48 -4 -5 -3 -21 -6
-35 -7 -74 -3 -329 -82 -421 -130 -16 -8 -31 -14 -34 -14 -13 0 -195 -113
-222 -137 -13 -13 -28 -23 -32 -23 -5 0 -12 -7 -15 -16 -3 -8 -9 -13 -13 -11
-11 7 -244 -228 -236 -237 3 -3 2 -6 -4 -6 -16 0 -144 -202 -191 -300 -41 -86
-79 -185 -88 -229 -3 -13 -9 -32 -15 -43 -5 -10 -7 -18 -5 -18 3 0 1 -11 -4
-24 -5 -13 -12 -44 -16 -67 -3 -24 -8 -55 -10 -69 -22 -138 -22 -335 1 -475
23 -146 111 -422 137 -433 5 -2 8 -10 8 -18 0 -17 21 -56 35 -66 6 -4 7 -8 3
-8 -4 0 0 -9 10 -20 9 -12 17 -24 17 -28 0 -12 137 -192 212 -278 39 -45 79
-95 89 -113 10 -17 22 -31 26 -31 4 0 8 -6 8 -14 0 -7 7 -19 15 -26 8 -7 13
-16 10 -20 -3 -5 0 -12 6 -16 9 -5 58 -101 65 -126 1 -5 3 -10 4 -13 1 -3 3
-8 5 -12 2 -11 15 -43 25 -68 7 -16 19 -61 36 -137 1 -5 2 -9 4 -10 3 -5 9
-43 14 -90 2 -26 7 -51 10 -56 7 -11 -4 -24 -41 -50 -17 -12 -35 -34 -40 -49
-11 -35 -10 -653 2 -708 4 -21 12 -44 17 -50 5 -5 18 -24 28 -42 17 -29 96
-92 123 -98 58 -12 58 -13 59 -138 0 -64 4 -117 8 -117 4 0 7 -6 8 -12 4 -47
44 -125 89 -174 46 -50 122 -106 134 -98 5 3 9 0 9 -5 0 -6 9 -11 19 -11 11 0
22 -4 25 -9 3 -5 23 -10 43 -11 94 -5 632 -3 663 2 49 10 140 58 178 95 17 18
32 29 32 25 0 -13 52 71 76 122 29 63 37 112 37 229 1 54 5 87 11 88 81 6 170
74 216 164 l26 50 -1 346 c0 379 0 381 -62 412 -16 7 -27 18 -27 23 1 5 5 32
8 59 6 49 10 73 22 127 3 15 5 29 4 30 0 2 8 28 19 60 11 31 17 59 14 62 -4 3
-2 6 4 6 6 0 14 12 18 28 11 45 125 270 125 247 0 -6 10 6 23 26 20 34 91 121
126 157 8 8 34 39 57 70 24 32 48 62 53 69 39 45 151 246 151 270 0 7 5 13 10
13 6 0 10 6 9 13 -2 6 5 30 15 52 9 21 19 48 21 60 2 11 4 21 6 23 1 1 2 5 3
10 1 4 5 13 9 20 5 6 5 17 2 22 -3 6 -1 10 6 10 7 0 10 2 7 6 -3 3 -2 22 3 42
19 76 23 100 35 207 11 97 5 358 -8 381 -3 5 -4 17 -3 27 2 9 -1 17 -6 17 -6
0 -8 4 -5 9 4 5 -1 38 -10 73 -9 34 -17 68 -19 73 -1 6 -5 17 -8 25 -3 8 -13
40 -24 70 -10 30 -21 58 -26 61 -4 3 -7 10 -6 15 3 13 -63 154 -73 154 -4 0
-8 9 -8 20 0 11 -4 20 -9 20 -5 0 -14 14 -21 30 -7 17 -16 30 -21 30 -5 0 -9
6 -9 13 0 7 -11 24 -25 39 -14 15 -25 32 -25 38 0 5 -5 10 -12 10 -6 0 -9 2
-6 5 12 12 -236 265 -260 265 -7 0 -10 5 -7 10 3 6 -1 10 -9 10 -9 0 -16 4
-16 8 0 4 -13 16 -30 25 -16 10 -35 23 -42 30 -7 7 -30 21 -50 32 -21 11 -38
24 -38 29 0 5 -3 6 -6 3 -4 -4 -19 2 -33 12 -30 21 -116 62 -181 86 -25 9 -54
21 -65 25 -35 15 -60 23 -75 25 -8 2 -26 6 -40 9 -91 23 -181 38 -237 39 -13
1 -23 4 -23 7 0 9 -32 6 -48 -4 -6 -4 -12 -3 -12 1 0 10 -112 9 -129 -1 -6 -4
-11 -2 -11 4 0 8 -6 8 -20 0 -14 -7 -20 -7 -20 0 0 5 -4 10 -10 10 -5 0 -10
-4 -10 -8z m260 -237 c95 -10 137 -17 185 -30 117 -32 170 -49 173 -57 2 -4
10 -8 18 -8 19 0 158 -70 162 -81 2 -5 12 -9 23 -9 10 0 19 -4 19 -10 0 -5 16
-17 35 -26 19 -9 35 -20 35 -25 0 -5 4 -9 9 -9 31 0 301 -276 301 -308 0 -7 5
-10 10 -7 6 3 10 1 10 -5 0 -6 17 -37 38 -68 20 -31 38 -64 40 -72 2 -8 10
-22 18 -31 8 -9 11 -19 7 -22 -3 -4 -1 -7 5 -7 7 0 12 -8 12 -18 0 -10 5 -23
12 -30 7 -7 8 -12 4 -12 -5 0 -4 -6 1 -12 11 -14 27 -68 25 -80 -1 -5 3 -8 8
-8 5 0 9 -3 8 -7 -1 -5 4 -26 10 -48 6 -22 13 -51 16 -65 3 -14 7 -36 11 -50
5 -26 14 -117 19 -210 2 -30 -1 -63 -7 -74 -7 -14 -6 -17 4 -11 9 6 10 3 5
-11 -4 -10 -10 -41 -12 -69 -2 -27 -6 -61 -9 -75 -3 -14 -8 -43 -11 -65 -4
-22 -10 -42 -15 -43 -5 -2 -7 -8 -4 -12 3 -5 -4 -35 -15 -67 -12 -32 -23 -66
-25 -77 -2 -10 -9 -24 -16 -32 -6 -8 -8 -14 -3 -14 4 0 3 -5 -4 -12 -7 -7 -12
-20 -12 -30 0 -10 -4 -18 -8 -18 -4 0 -14 -16 -21 -35 -7 -19 -17 -35 -22 -35
-5 0 -9 -5 -9 -11 0 -6 -14 -31 -32 -57 -18 -26 -32 -49 -32 -52 0 -3 -12 -18
-28 -33 -15 -16 -28 -32 -28 -35 0 -4 -15 -23 -33 -42 -71 -77 -137 -157 -137
-168 0 -6 -6 -15 -13 -19 -25 -16 -137 -212 -137 -240 0 -7 -5 -13 -10 -13 -6
0 -9 -3 -8 -7 0 -5 -2 -17 -6 -28 -11 -27 -17 -49 -16 -53 0 -1 -7 -16 -15
-32 -9 -17 -13 -30 -10 -30 3 0 -1 -16 -10 -36 -8 -19 -14 -38 -14 -42 1 -4 0
-9 -1 -12 -4 -11 -17 -71 -27 -120 -2 -14 -5 -44 -6 -67 -1 -24 -5 -43 -10
-43 -4 0 -4 -12 -1 -27 6 -23 4 -25 -15 -20 -11 3 -21 2 -21 -2 0 -10 -134 -7
-142 4 -5 6 -8 6 -8 -1 0 -6 -7 -11 -15 -11 -8 0 -15 5 -15 11 0 6 -4 6 -12
-2 -7 -7 -17 -8 -30 -1 -10 5 -18 6 -18 2 0 -12 -134 -10 -142 2 -5 6 -8 6 -8
-1 0 -6 -7 -11 -15 -11 -8 0 -15 5 -15 11 0 6 -4 6 -12 -2 -7 -7 -17 -8 -30
-1 -10 5 -18 6 -18 2 0 -12 -134 -10 -142 2 -5 6 -8 6 -8 -1 0 -6 -7 -11 -15
-11 -8 0 -15 5 -15 11 0 6 -4 6 -12 -2 -7 -7 -17 -8 -30 -1 -10 5 -18 6 -18 2
0 -12 -134 -10 -142 2 -5 6 -8 6 -8 -1 0 -6 -7 -11 -15 -11 -8 0 -15 5 -15 11
0 6 -4 6 -12 -2 -7 -7 -17 -8 -30 -1 -10 5 -18 6 -18 2 0 -4 -32 -8 -70 -8
-40 0 -70 4 -70 10 0 6 -4 4 -9 -4 -13 -20 -27 12 -35 79 -3 30 -8 69 -10 87
-2 17 -6 35 -9 40 -4 5 -9 25 -12 44 -7 46 -43 166 -63 209 -9 19 -17 40 -18
46 -3 19 -86 180 -107 208 -4 6 -26 36 -48 66 -61 84 -82 111 -109 140 -60 65
-80 90 -80 100 0 5 -4 10 -8 10 -13 0 -97 128 -144 219 -41 81 -97 241 -114
326 -11 60 -18 115 -18 152 -1 24 -3 43 -6 43 -11 0 0 226 16 315 3 17 14 64
25 105 11 41 21 81 21 88 1 6 5 12 10 12 4 0 7 3 7 8 -1 4 0 10 1 15 1 4 3 10
5 15 12 45 96 214 116 235 10 12 19 26 19 33 0 6 7 15 16 18 8 3 12 10 9 16
-3 5 -1 10 5 10 6 0 15 11 22 25 6 13 15 22 19 19 5 -3 9 0 9 5 0 20 126 152
189 199 20 15 40 33 44 39 4 7 14 13 22 13 7 0 15 4 17 8 4 11 118 84 118 76
0 -3 7 2 16 10 8 9 20 14 25 11 5 -4 9 -2 9 4 0 5 14 12 30 16 17 4 30 11 30
17 0 6 3 9 6 5 3 -3 22 3 41 14 19 11 38 17 43 14 5 -3 11 -1 14 4 5 7 36 17
86 27 8 2 33 7 55 13 74 18 100 22 185 27 47 3 86 7 87 8 3 2 96 -3 153 -9z
m545 -3666 c0 -220 -2 -251 -17 -266 -16 -15 -69 -17 -638 -17 -407 -1 -620 2
-620 9 0 6 -4 4 -9 -4 -10 -16 -46 0 -59 27 -6 13 -9 434 -3 488 1 7 200 11
674 11 l672 0 0 -248z m-259 -522 c5 -4 7 -46 6 -92 -2 -86 -21 -155 -43 -155
-7 0 -9 -3 -6 -6 7 -7 -44 -52 -52 -46 -2 2 -7 -2 -12 -10 -7 -10 -69 -13
-301 -14 -161 -1 -297 1 -303 4 -5 4 -16 7 -23 8 -24 4 -82 54 -98 85 -14 27
-26 83 -24 117 0 6 0 20 0 30 0 9 0 24 0 32 0 13 7 54 9 55 11 6 842 -2 847
-8z"/>
<path d="M8744 7409 c-3 -5 -9 -7 -13 -5 -12 8 -69 -53 -73 -77 -5 -33 10 -83
42 -138 16 -27 26 -49 22 -49 -4 0 -2 -4 3 -8 14 -10 45 -71 45 -88 0 -8 3
-14 8 -14 4 0 16 -21 26 -48 11 -26 29 -67 40 -92 11 -25 21 -47 21 -50 1 -3
9 -23 19 -45 10 -22 19 -47 22 -55 5 -18 53 -155 55 -155 2 0 11 -41 12 -57 1
-10 5 -18 9 -18 4 0 8 -8 8 -18 0 -22 32 -62 49 -62 6 0 11 -4 11 -9 0 -17 61
-17 98 -1 43 19 66 56 64 102 -1 30 -7 69 -12 76 -2 1 -3 5 -5 10 -1 4 -7 20
-13 35 -7 16 -12 35 -12 42 0 8 -6 29 -14 47 -12 28 -24 57 -31 78 -1 3 -7 18
-13 33 -7 16 -12 31 -12 33 0 3 -9 24 -19 47 -23 52 -50 116 -51 122 0 3 -11
25 -25 49 -13 24 -21 46 -18 50 4 3 0 6 -7 6 -7 0 -10 3 -7 6 4 4 -2 19 -13
34 -11 16 -20 35 -20 44 0 9 -5 16 -12 16 -6 0 -9 3 -5 6 3 3 -10 30 -29 60
-19 30 -31 54 -27 54 4 0 -6 9 -23 19 -37 23 -91 33 -100 20z"/>
<path d="M1960 7353 c-41 -18 -52 -31 -87 -103 -14 -30 -30 -56 -35 -58 -4 -2
-8 -9 -8 -15 0 -7 -9 -29 -19 -49 -11 -19 -17 -39 -14 -42 4 -3 2 -6 -4 -6 -6
0 -14 -10 -18 -22 -9 -29 -8 -26 -29 -73 -27 -61 -83 -203 -86 -220 -1 -2 -12
-32 -25 -66 -14 -34 -22 -66 -19 -70 3 -5 0 -9 -7 -9 -7 0 -9 -3 -6 -7 4 -3 2
-12 -4 -20 -6 -7 -9 -13 -6 -13 4 0 0 -19 -8 -41 -29 -80 -13 -147 39 -172 37
-17 108 -16 114 2 2 6 8 9 13 5 5 -3 14 6 21 20 6 14 15 26 20 26 5 0 6 5 3
10 -4 6 -1 17 5 25 7 8 10 15 7 15 -3 0 4 26 15 58 11 31 22 64 24 72 4 18 55
158 79 215 28 69 31 77 110 239 42 88 78 172 80 187 5 43 -30 100 -70 111 -11
3 -27 8 -35 11 -8 3 -31 -1 -50 -10z"/>
<path d="M1518 6135 c-1 -2 -25 -4 -53 -6 -27 -1 -54 -5 -59 -7 -5 -3 -21 -7
-35 -8 -39 -5 -54 -9 -78 -22 -13 -7 -23 -10 -23 -7 0 8 -141 -66 -158 -82 -7
-7 -17 -13 -21 -13 -7 0 -108 -98 -136 -132 -39 -47 -106 -167 -111 -198 0 -3
-6 -17 -12 -31 -21 -52 -31 -135 -29 -256 1 -68 5 -123 10 -123 5 0 7 -6 5
-12 -7 -21 69 -218 84 -218 5 0 8 -5 8 -10 0 -11 10 -25 48 -65 13 -14 21 -25
18 -25 -12 0 86 -89 129 -117 28 -18 55 -36 60 -40 26 -21 104 -53 133 -55 6
-1 12 -4 12 -7 0 -6 26 -11 68 -14 6 0 12 -3 12 -7 0 -8 4 -9 126 -10 59 -1
111 3 123 9 12 7 21 8 21 3 0 -5 29 1 65 13 36 13 68 23 71 23 3 0 43 21 89
47 85 48 159 111 211 182 16 21 32 40 35 43 11 9 68 120 62 120 -3 0 0 7 7 15
7 8 9 15 5 15 -4 0 -2 6 4 14 7 8 14 23 16 35 3 12 8 31 11 44 18 74 23 193
12 277 -16 112 -82 262 -155 350 -62 76 -220 200 -245 193 -4 -2 -8 2 -8 7 0
6 -8 10 -18 10 -10 0 -22 4 -28 10 -5 5 -18 11 -29 13 -11 2 -27 6 -35 10 -43
15 -60 19 -120 23 -36 3 -70 7 -77 9 -6 2 -13 2 -15 0z m67 -239 c75 -10 97
-17 163 -49 120 -59 241 -209 259 -321 3 -17 9 -38 14 -47 5 -10 4 -20 -3 -27
-8 -8 -8 -12 -2 -12 14 0 8 -112 -7 -158 -6 -18 -12 -39 -13 -46 -5 -36 -67
-135 -117 -187 -31 -32 -60 -59 -64 -59 -4 0 -19 -9 -35 -20 -15 -11 -30 -17
-34 -13 -3 3 -6 1 -6 -5 0 -7 -7 -12 -16 -12 -8 0 -22 -6 -29 -14 -8 -7 -25
-12 -39 -11 -14 2 -26 0 -26 -5 0 -4 -10 -8 -22 -8 -13 0 -41 -1 -63 -2 -47
-2 -144 8 -160 18 -5 3 -16 7 -23 8 -12 2 -61 26 -114 56 -73 41 -187 199
-202 279 -3 13 -5 24 -6 24 -15 0 -15 170 0 225 7 25 13 50 14 55 11 64 162
255 201 255 8 0 15 4 15 8 0 9 82 45 91 40 3 -2 13 3 21 10 9 7 42 15 74 17
32 3 60 7 62 10 2 2 9 2 15 0 7 -2 30 -6 52 -9z"/>
<path d="M9215 6130 c-27 -3 -56 -9 -62 -13 -7 -5 -13 -4 -13 1 0 10 -124 -29
-172 -54 -18 -10 -36 -17 -40 -16 -5 1 -8 -2 -8 -8 0 -6 -5 -10 -11 -10 -17 0
-100 -61 -143 -105 -67 -69 -180 -235 -160 -235 4 0 1 -7 -6 -15 -7 -8 -10
-15 -6 -15 4 0 -1 -11 -10 -25 -9 -14 -14 -25 -10 -25 3 0 1 -12 -5 -27 -21
-57 -29 -212 -14 -298 4 -22 8 -50 9 -62 1 -12 8 -29 15 -37 8 -9 11 -16 7
-16 -9 0 25 -80 62 -144 54 -92 195 -236 231 -236 6 0 11 -4 11 -8 0 -5 30
-22 68 -39 90 -42 109 -49 162 -58 14 -2 25 -4 25 -5 0 -10 191 -15 230 -6 11
2 20 5 20 6 0 1 14 3 30 5 43 6 58 10 71 17 6 4 23 9 37 12 15 3 39 14 53 25
15 12 35 21 45 21 11 0 19 4 19 8 0 5 18 18 40 31 22 12 60 42 84 65 67 67
165 207 163 236 0 3 10 24 22 48 12 23 19 42 16 42 -2 0 0 12 5 26 19 48 34
250 20 259 -4 2 -6 20 -5 40 0 19 -3 35 -8 35 -5 0 -7 6 -4 13 2 6 -2 27 -9
45 -7 18 -13 35 -13 37 -1 3 -8 21 -16 41 -8 20 -15 38 -15 40 0 5 -71 116
-84 132 -22 25 -94 98 -121 120 -29 26 -215 127 -215 118 0 -3 -11 -1 -25 4
-31 12 -66 19 -125 26 -83 10 -95 10 -145 4z m75 -228 c0 -4 18 -7 40 -5 22 1
42 -2 45 -8 4 -5 10 -7 15 -4 14 9 150 -52 150 -68 0 -4 4 -6 9 -2 16 9 130
-111 153 -161 6 -13 15 -24 20 -24 4 0 8 -9 8 -19 0 -11 5 -23 11 -26 6 -4 8
-13 5 -21 -3 -8 -1 -14 4 -14 6 0 9 -3 8 -7 -1 -5 2 -25 7 -46 11 -54 12 -105
3 -157 -4 -25 -10 -57 -12 -72 -3 -15 -11 -38 -18 -50 -6 -13 -13 -29 -14 -36
-6 -36 -109 -156 -169 -198 -35 -24 -125 -66 -125 -57 0 3 -6 1 -13 -5 -7 -7
-38 -14 -68 -17 -30 -4 -59 -8 -66 -10 -6 -2 -14 -1 -17 3 -4 3 -27 5 -51 5
-25 -1 -45 2 -45 6 0 4 -11 8 -25 9 -49 4 -159 67 -215 123 -82 81 -126 164
-146 272 -9 54 -11 147 -2 147 4 0 5 8 3 18 -2 15 13 74 32 122 3 8 5 18 5 23
-1 4 2 7 7 7 5 0 13 9 16 21 12 36 109 141 155 168 55 32 119 61 141 65 13 3
24 5 24 6 0 1 22 3 49 6 27 2 52 6 54 9 8 8 22 6 22 -3z"/>
<path d="M9080 4472 c-17 -6 -75 -52 -65 -52 3 0 1 -9 -5 -21 -7 -11 -14 -32
-16 -47 -3 -14 -8 -30 -12 -36 -3 -6 -7 -15 -7 -21 0 -15 -55 -173 -90 -260
-5 -11 -7 -23 -7 -27 1 -5 -3 -8 -10 -8 -6 0 -9 -3 -5 -6 3 -4 -1 -21 -10 -38
-10 -17 -16 -34 -15 -38 1 -5 -3 -8 -10 -8 -6 0 -9 -3 -5 -6 3 -4 -1 -21 -10
-38 -10 -17 -17 -33 -18 -36 -2 -14 -60 -125 -67 -128 -5 -2 -6 -8 -2 -13 3
-5 0 -9 -5 -9 -6 0 -10 -3 -9 -7 0 -5 -6 -24 -14 -43 -15 -31 -15 -58 -3 -101
7 -20 58 -58 87 -63 25 -4 82 16 101 36 7 7 23 34 36 61 12 26 26 47 30 47 4
0 8 6 8 13 0 6 20 53 43 102 24 50 44 93 44 97 1 3 4 10 9 14 4 4 7 15 7 25 0
9 3 19 8 21 4 2 15 26 26 53 49 132 67 181 69 190 2 6 5 15 8 20 5 8 18 54 20
70 0 2 9 28 20 57 28 77 25 127 -9 166 -27 31 -86 47 -122 34z"/>
<path d="M1639 4405 c-15 -8 -34 -32 -42 -53 -16 -40 -14 -61 12 -142 7 -19
17 -51 23 -70 6 -19 15 -46 21 -60 6 -14 11 -29 12 -35 3 -11 41 -109 54 -140
5 -11 17 -38 27 -60 10 -22 19 -42 19 -45 0 -3 6 -15 13 -27 7 -13 10 -23 6
-23 -4 0 0 -8 9 -18 10 -10 14 -22 10 -25 -3 -4 -1 -7 5 -7 7 0 11 -3 10 -7
-3 -11 62 -136 74 -144 5 -3 9 -9 8 -13 -5 -14 35 -86 48 -86 6 0 12 -4 12 -9
0 -13 51 -29 80 -25 42 7 71 27 90 64 20 40 18 65 -9 118 -10 20 -20 42 -21
47 -1 6 -7 17 -14 25 -15 17 -136 270 -136 283 0 3 -8 22 -17 43 -9 22 -16 42
-15 47 1 4 -3 7 -9 7 -5 0 -8 4 -4 9 3 5 1 12 -5 16 -5 3 -10 17 -10 31 0 13
-5 24 -12 24 -6 0 -9 3 -5 6 3 4 0 19 -9 35 -8 16 -14 30 -13 31 3 5 -41 143
-52 164 -25 49 -106 68 -160 39z"/>
<path d="M8096 3393 c-4 -4 -26 -9 -49 -10 -23 0 -42 -2 -42 -3 0 -1 -10 -3
-23 -6 -43 -8 -141 -44 -174 -64 -18 -11 -41 -23 -50 -26 -10 -4 -18 -10 -18
-15 0 -5 -4 -9 -10 -9 -5 0 -22 -10 -37 -22 -46 -38 -177 -178 -166 -178 2 0
-4 -12 -15 -27 -17 -26 -62 -124 -67 -148 -1 -5 -7 -29 -14 -53 -7 -24 -14
-58 -17 -75 -5 -38 -5 -163 0 -192 3 -11 8 -41 12 -67 3 -27 10 -48 13 -48 4
0 7 -9 8 -21 3 -31 59 -145 95 -192 76 -101 171 -182 263 -227 28 -14 53 -29
57 -35 4 -5 8 -7 8 -3 0 4 12 3 28 -3 43 -17 91 -27 166 -34 21 -2 41 -6 44
-9 3 -3 11 -1 19 5 9 8 13 8 13 1 0 -6 6 -9 13 -7 6 3 32 7 57 10 127 12 230
49 334 119 59 39 186 159 186 176 0 5 6 15 13 22 22 23 67 105 60 112 -3 3 -1
6 5 6 7 0 11 3 10 8 -1 4 4 20 10 35 7 15 14 40 17 55 2 15 9 41 14 59 14 49
11 221 -6 293 -16 74 -62 193 -75 198 -4 2 -8 10 -8 18 0 8 -4 14 -10 14 -5 0
-10 6 -10 13 0 6 -18 31 -40 55 -22 23 -37 42 -34 42 6 0 -32 35 -76 70 -18
14 -38 31 -46 38 -8 7 -14 10 -14 5 0 -4 -4 -3 -8 3 -9 13 -130 74 -157 79
-11 2 -21 4 -22 5 -2 2 -7 4 -13 5 -5 1 -11 3 -12 5 -4 3 -49 9 -96 13 -23 2
-45 6 -48 9 -3 3 -20 2 -39 -2 -20 -4 -35 -4 -37 2 -2 5 -7 6 -12 1z m107
-239 c18 -2 42 -6 55 -9 12 -3 32 -7 44 -10 12 -2 26 -9 32 -15 5 -5 18 -10
28 -10 10 0 18 -4 18 -10 0 -5 6 -10 14 -10 7 0 19 -7 26 -15 7 -9 15 -14 17
-11 5 5 93 -79 93 -89 0 -3 9 -15 20 -27 19 -21 59 -98 65 -127 2 -9 8 -29 12
-46 5 -16 9 -37 8 -45 -1 -8 3 -23 7 -32 6 -12 5 -18 -3 -18 -8 0 -9 -4 0 -13
6 -8 8 -17 4 -20 -3 -4 -7 -27 -8 -51 -1 -24 -5 -49 -9 -55 -4 -6 -9 -20 -11
-32 -15 -76 -129 -228 -197 -263 -18 -9 -46 -25 -63 -35 -26 -16 -46 -23 -105
-38 -8 -2 -34 -5 -57 -7 -23 -2 -46 -7 -52 -10 -6 -4 -11 -3 -11 1 0 5 -22 8
-50 8 -27 0 -50 3 -50 8 0 5 -6 7 -14 4 -22 -9 -168 68 -216 115 -99 94 -163
237 -161 363 1 87 33 201 71 256 12 16 19 29 16 29 -16 0 105 115 144 138 25
14 48 30 51 35 3 5 10 8 15 8 5 -1 31 6 58 15 28 10 72 18 98 19 27 1 51 5 55
8 3 4 10 4 15 1 5 -3 23 -7 41 -10z"/>
<path d="M2524 3380 c-12 -5 -34 -11 -50 -13 -36 -7 -95 -27 -110 -38 -6 -5
-13 -7 -16 -4 -3 3 -11 -1 -18 -10 -7 -8 -19 -15 -26 -15 -16 0 -87 -52 -142
-105 -20 -19 -40 -35 -44 -35 -5 0 -8 -7 -8 -15 0 -8 -4 -15 -8 -15 -9 0 -106
-144 -108 -160 -1 -6 -2 -11 -4 -12 -1 -2 -3 -12 -5 -22 -2 -10 -7 -22 -12
-25 -4 -3 -10 -13 -12 -21 -2 -8 -4 -19 -5 -25 -9 -38 -20 -94 -22 -115 -1
-14 -3 -25 -4 -25 0 0 -2 -24 -3 -53 -1 -28 0 -52 3 -52 3 0 5 -15 6 -33 1
-56 10 -100 32 -157 3 -8 6 -17 7 -20 26 -74 78 -167 102 -183 7 -4 13 -12 13
-18 0 -25 179 -179 209 -179 6 0 11 -4 11 -10 0 -5 4 -10 9 -10 5 0 30 -10 57
-22 27 -12 53 -21 58 -20 4 2 14 -2 21 -8 7 -6 31 -11 54 -13 22 -1 41 -5 41
-8 0 -4 54 -7 120 -7 66 0 120 3 120 7 0 4 10 8 23 9 50 5 120 27 153 49 11 7
24 10 27 6 4 -3 7 -1 7 5 0 7 6 12 14 12 33 0 226 171 226 200 0 6 5 8 10 5 6
-3 10 -1 10 5 0 6 14 31 31 56 16 24 31 53 32 64 1 11 5 20 9 20 7 0 25 54 35
105 3 17 8 37 12 45 4 8 9 49 10 90 2 41 5 78 8 83 2 4 1 7 -4 7 -4 0 -9 17
-9 38 -2 52 -12 100 -30 147 -9 22 -18 49 -20 59 -2 11 -7 22 -11 25 -5 3 -9
12 -11 20 -5 24 -79 125 -133 182 -78 80 -204 160 -291 184 -5 2 -9 3 -10 5
-2 1 -10 3 -18 5 -8 1 -31 6 -50 10 -50 11 -261 14 -286 5z m251 -234 c17 -4
37 -10 45 -13 8 -4 17 -7 20 -8 3 0 23 -9 45 -20 41 -20 53 -28 86 -57 10 -10
24 -18 29 -18 6 0 10 -3 10 -8 0 -4 12 -20 28 -37 54 -58 106 -170 115 -246 3
-20 8 -43 12 -49 6 -9 4 -11 -4 -5 -10 5 -11 3 -4 -11 8 -17 10 -39 4 -46 -1
-2 -4 -23 -6 -47 -2 -23 -9 -49 -15 -55 -5 -7 -7 -16 -4 -19 3 -3 2 -12 -2
-19 -5 -7 -9 -15 -10 -18 -11 -37 -18 -50 -26 -50 -5 0 -6 -4 -3 -10 3 -5 1
-10 -5 -10 -6 0 -9 -4 -5 -9 3 -6 -4 -15 -16 -21 -11 -7 -19 -14 -16 -17 12
-12 -100 -106 -166 -138 -78 -38 -100 -45 -163 -49 -22 -1 -45 -5 -51 -9 -5
-4 -13 -4 -17 0 -3 4 -25 8 -49 9 -23 2 -49 5 -57 7 -8 3 -30 8 -47 12 -18 4
-33 11 -33 16 0 5 -7 9 -15 9 -9 0 -28 8 -43 17 -138 86 -230 224 -247 372 -2
18 -6 36 -9 39 -3 2 -1 13 5 23 7 13 6 19 -1 19 -6 0 -8 5 -4 12 4 6 9 26 10
42 7 77 43 166 94 230 59 75 188 166 234 166 9 0 16 5 16 11 0 5 4 7 10 4 5
-3 17 -2 26 3 18 10 186 9 229 -2z"/>
<path d="M5308 2248 c-52 -10 -102 -19 -115 -20 -7 -1 -13 -5 -13 -10 0 -5 -4
-7 -9 -4 -12 8 -183 -79 -215 -109 -15 -13 -26 -21 -26 -18 0 3 -23 -18 -50
-48 -54 -57 -126 -159 -122 -171 1 -5 -2 -8 -7 -8 -7 0 -14 -15 -22 -50 0 -3
-4 -9 -9 -15 -23 -29 -53 -186 -53 -275 0 -47 11 -128 22 -167 5 -18 8 -33 5
-33 -2 0 2 -13 10 -29 9 -16 12 -31 9 -35 -4 -3 -2 -6 4 -6 6 0 14 -12 18 -27
3 -15 15 -39 26 -55 11 -15 17 -28 12 -28 -4 0 -3 -4 2 -8 6 -4 28 -29 50 -57
49 -61 136 -145 151 -145 5 0 19 -8 30 -17 42 -39 198 -99 283 -109 25 -3 49
-8 54 -11 6 -3 7 -1 3 5 -5 9 -1 10 16 4 19 -7 103 -9 103 -2 0 1 18 3 40 5
65 5 155 34 223 71 34 18 62 30 62 26 0 -4 5 1 11 11 5 9 14 17 20 17 11 0 19
6 89 72 27 26 50 51 50 57 0 5 4 11 8 13 11 4 74 94 90 128 23 51 52 130 46
130 -4 0 -2 6 3 13 11 13 12 21 16 84 1 24 5 43 8 43 7 0 3 124 -6 165 -4 17
-8 39 -10 50 -10 46 -16 64 -48 140 -11 28 -27 57 -34 66 -7 8 -13 20 -13 26
0 5 -11 20 -25 33 -14 13 -25 27 -25 32 0 13 -98 106 -144 137 -56 37 -174 94
-211 101 -3 1 -19 6 -37 12 -18 5 -46 11 -63 13 -16 2 -30 4 -30 5 0 5 -149 4
-177 -2z m162 -233 c72 -8 83 -11 156 -47 76 -37 176 -129 209 -194 11 -22 22
-41 25 -44 6 -6 12 -30 13 -47 0 -7 3 -13 7 -13 4 0 7 -6 8 -12 1 -7 4 -29 6
-48 11 -72 13 -120 6 -120 -4 0 -6 -16 -5 -35 2 -19 -1 -38 -6 -41 -5 -3 -7
-10 -4 -15 4 -5 1 -9 -5 -9 -6 0 -9 -4 -5 -10 7 -11 -30 -93 -64 -140 -41 -56
-109 -118 -164 -147 -28 -16 -53 -28 -56 -29 -3 0 -19 -6 -36 -13 -28 -12
-113 -24 -160 -23 -26 0 -110 9 -110 12 0 1 -11 3 -24 6 -57 10 -157 71 -216
132 -55 55 -113 145 -119 184 -1 7 -5 18 -8 24 -15 24 -28 194 -15 194 4 0 6
4 3 9 -3 5 1 30 8 55 8 26 14 48 14 49 1 1 6 16 13 32 7 17 12 33 11 38 -1 4
2 7 7 7 5 0 12 8 16 18 9 31 117 136 165 161 25 14 48 29 52 35 4 6 8 7 8 3 0
-4 10 -2 23 5 12 6 29 13 37 14 8 1 40 5 70 9 30 4 57 9 59 11 3 2 12 2 20 0
9 -3 36 -8 61 -11z"/>
<path d="M7160 2105 c-58 -30 -115 -59 -128 -65 -12 -5 -42 -19 -66 -30 -25
-11 -50 -20 -55 -20 -6 0 -11 -5 -11 -11 0 -5 -4 -7 -10 -4 -5 3 -10 2 -10 -2
0 -5 -10 -9 -22 -10 -11 -1 -25 -8 -29 -15 -5 -7 -9 -9 -9 -4 0 5 -6 3 -13 -3
-8 -6 -17 -8 -20 -4 -4 3 -7 1 -7 -5 0 -7 -3 -11 -7 -11 -5 1 -11 0 -15 -1 -5
-1 -12 -4 -18 -5 -5 -1 -12 -4 -15 -5 -3 -1 -8 -3 -12 -5 -5 -1 -21 -7 -36
-13 -15 -7 -40 -15 -55 -18 -15 -4 -31 -10 -37 -14 -9 -6 -47 -18 -81 -25 -31
-7 -81 -37 -93 -57 -18 -28 -22 -88 -9 -105 6 -7 7 -13 3 -13 -12 0 36 -40 68
-56 15 -8 27 -11 27 -6 0 5 10 8 23 7 20 -2 114 24 162 45 31 13 69 24 78 22
4 -1 7 3 7 10 0 6 3 9 6 6 6 -6 91 26 182 68 29 13 56 24 60 24 4 0 34 14 67
30 33 16 65 30 72 30 6 0 13 3 15 8 2 4 41 27 88 50 84 43 146 94 135 112 -4
6 -2 10 4 10 7 0 7 8 1 25 -5 14 -7 25 -4 25 10 0 -29 57 -47 68 -46 29 -80
23 -189 -33z"/>
<path d="M3531 2123 c-34 -14 -65 -39 -67 -55 -1 -4 -2 -9 -3 -10 -2 -2 -4
-14 -7 -27 -8 -41 14 -87 54 -113 34 -22 286 -148 296 -148 2 0 26 -10 53 -22
26 -12 50 -22 53 -23 9 -3 44 -17 65 -25 97 -39 128 -49 136 -44 5 3 9 0 9 -7
0 -7 3 -9 7 -6 3 4 11 3 17 -2 6 -4 34 -14 61 -21 28 -7 55 -16 60 -19 12 -7
31 -11 70 -15 58 -7 109 28 125 85 13 44 -18 112 -58 127 -15 6 -36 14 -47 18
-11 4 -22 8 -25 9 -88 23 -110 30 -110 36 0 4 -8 6 -17 4 -10 -1 -22 1 -28 5
-14 10 -88 35 -97 32 -5 -1 -8 2 -8 8 0 6 -3 9 -7 8 -8 -1 -19 3 -93 34 -25
11 -54 23 -65 27 -11 5 -40 18 -63 30 -24 11 -50 21 -57 21 -7 0 -15 3 -17 8
-1 4 -32 21 -68 37 -36 17 -71 36 -79 43 -8 8 -22 11 -32 9 -10 -3 -19 -2 -21
2 -2 5 -18 2 -37 -6z"/>
</g>
</svg>
